<?xml version="1.0" encoding="UTF-8"?>
<svg id="Layer_1" xmlns="http://www.w3.org/2000/svg" version="1.1" viewBox="0 0 665.11 645.76">
  <!-- Generator: Adobe Illustrator 29.5.1, SVG Export Plug-In . SVG Version: 2.1.0 Build 141)  -->
  <defs>
    <style>
      .st0 {
        fill: #d5d9cf;
      }

      .st1 {
        fill: #ecebec;
      }

      .st2 {
        fill: #333336;
      }

      .st3 {
        fill: #cd6b23;
      }

      .st4 {
        fill: #68a240;
      }

      .st5 {
        fill: #575559;
      }
    </style>
  </defs>
  <path class="st1" d="M127.32,110.16h412.07v358H127.32V110.16Z"/>
  <path class="st2" d="M543.29,472.07H123.41V106.33h419.88v365.74h0ZM131.15,464.34h404.34V114.06H131.15v350.27h0Z"/>
  <path class="st5" d="M515.82,84.86H149.21c-28.26,0-51.32,23.13-51.32,51.32v312.61c0,28.26,23.13,51.32,51.32,51.32h366.68c28.26,0,51.32-23.13,51.32-51.32V136.18c0-28.26-23.13-51.32-51.39-51.32h0ZM519,426.97c0,13.73-11.2,24.93-24.93,24.93H171.04c-13.73,0-24.93-11.2-24.93-24.93V158.01c0-13.73,11.2-24.93,24.93-24.93h323.02c13.73,0,24.93,11.2,24.93,24.93v268.95h0Z"/>
  <path class="st2" d="M515.82,504.02H149.21c-30.43,0-55.22-24.8-55.22-55.22V136.18c0-30.43,24.8-55.22,55.22-55.22h366.68c30.43,0,55.22,24.8,55.22,55.22v312.61c-.07,30.43-24.8,55.22-55.3,55.22h0ZM149.21,88.69c-26.16,0-47.49,21.33-47.49,47.49v312.61c0,26.16,21.33,47.49,47.49,47.49h366.68c26.16,0,47.49-21.33,47.49-47.49V136.18c0-26.16-21.33-47.49-47.49-47.49H149.21ZM494,455.81H171.04c-15.9,0-28.84-12.93-28.84-28.84V158.01c0-15.9,12.93-28.84,28.84-28.84h323.02c15.9,0,28.84,12.93,28.84,28.84v268.95c-.07,15.9-13.01,28.84-28.91,28.84h0ZM171.04,136.98c-11.64,0-21.03,9.46-21.03,21.03v268.95c0,11.64,9.46,21.03,21.03,21.03h323.02c11.64,0,21.03-9.46,21.03-21.03V158.01c0-11.64-9.46-21.03-21.03-21.03H171.04Z"/>
  <path class="st2" d="M332.51,176.22c-2.16,0-3.9-1.73-3.9-3.9v-39.25c0-2.16,1.73-3.9,3.9-3.9s3.9,1.73,3.9,3.9v39.25c0,2.16-1.74,3.9-3.9,3.9ZM332.51,455.45c-2.16,0-3.9-1.74-3.9-3.9v-39.25c0-2.16,1.73-3.9,3.9-3.9s3.9,1.74,3.9,3.9v39.25c0,2.16-1.74,3.9-3.9,3.9Z"/>
  <path class="st4" d="M147.41,292.46h39.25"/>
  <path class="st2" d="M186.66,296.36h-39.25c-2.16,0-3.9-1.73-3.9-3.9s1.73-3.9,3.9-3.9h39.25c2.16,0,3.9,1.73,3.9,3.9-.07,2.16-1.8,3.9-3.9,3.9Z"/>
  <path class="st4" d="M479.75,292.46h39.25"/>
  <path class="st2" d="M519,296.36h-39.25c-2.16,0-3.9-1.73-3.9-3.9s1.74-3.9,3.9-3.9h39.25c2.16,0,3.9,1.73,3.9,3.9-.07,2.16-1.8,3.9-3.9,3.9Z"/>
  <path class="st3" d="M285.17,292.46c0,26.15,21.2,47.34,47.34,47.34s47.34-21.2,47.34-47.34h0c0-26.15-21.2-47.34-47.34-47.34s-47.34,21.2-47.34,47.34h0Z"/>
  <path class="st2" d="M332.51,343.7c-28.26,0-51.17-22.98-51.17-51.17s22.98-51.17,51.17-51.17,51.17,22.98,51.17,51.17-22.92,51.17-51.17,51.17ZM332.51,249.01c-23.93,0-43.44,19.51-43.44,43.44s19.51,43.44,43.44,43.44,43.44-19.51,43.44-43.44-19.51-43.44-43.44-43.44h0Z"/>
  <path class="st0" d="M314.95,292.46c0,9.7,7.85,17.57,17.55,17.58,9.7,0,17.57-7.85,17.58-17.55v-.04c0-9.7-7.86-17.56-17.56-17.56s-17.56,7.86-17.56,17.56h0Z"/>
  <path class="st2" d="M332.51,313.92c-11.78,0-21.4-9.61-21.4-21.4s9.61-21.4,21.4-21.4,21.39,9.61,21.39,21.4-9.61,21.4-21.4,21.4h0ZM332.51,278.79c-7.51,0-13.67,6.14-13.67,13.67s6.14,13.67,13.67,13.67,13.67-6.14,13.67-13.67-6.14-13.67-13.67-13.67Z"/>
  <path class="st2" d="M441.88,296.36h-89.99c-2.16,0-3.9-1.73-3.9-3.9s1.74-3.9,3.9-3.9h89.99c2.16,0,3.9,1.73,3.9,3.9-.07,2.16-1.8,3.9-3.9,3.9Z"/>
  <path class="st0" d="M314.95,274.96l-103.8-72.14"/>
  <path class="st2" d="M314.95,278.79c-.8,0-1.52-.21-2.24-.72l-103.8-72.14c-1.73-1.23-2.16-3.62-.94-5.42,1.23-1.73,3.62-2.16,5.42-.94l103.8,72.14c1.73,1.23,2.16,3.62.94,5.42-.72,1.08-1.95,1.67-3.18,1.67h0Z"/>
  <path class="st3" d="M486.4,560.9H179.86c-10.48,0-17.99-10.05-15.03-20.1l12.07-40.69h312.46l12.07,40.69c2.96,10.05-4.55,20.1-15.03,20.1h0Z"/>
  <path class="st2" d="M486.4,564.8H179.86c-6.22,0-11.93-2.89-15.62-7.88s-4.84-11.28-3.11-17.2l12.87-43.44h318.25l12.87,43.44c1.74,6,.65,12.21-3.11,17.2-3.68,4.99-9.4,7.88-15.61,7.88h0ZM179.79,504.02l-11.2,37.88c-1.08,3.62-.36,7.37,1.88,10.41s5.71,4.7,9.4,4.7h306.54c3.76,0,7.15-1.74,9.46-4.7,2.24-3.03,2.89-6.79,1.88-10.41l-11.28-37.88H179.79Z"/>
</svg>