<?xml version="1.0" encoding="UTF-8"?>
<svg id="Layer_1" xmlns="http://www.w3.org/2000/svg" version="1.1" viewBox="0 0 507.78 645.76">
  <!-- Generator: Adobe Illustrator 29.5.1, SVG Export Plug-In . SVG Version: 2.1.0 Build 141)  -->
  <defs>
    <style>
      .st0 {
        fill: #cd6b23;
      }

      .st0, .st1 {
        fill-rule: evenodd;
      }

      .st1 {
        fill: #575559;
      }
    </style>
  </defs>
  <path class="st1" d="M197.74,398.97l19.67-112.3c-25.99-20.14-30.74-57.54-10.59-83.54,11.34-14.64,28.84-23.16,47.35-23.07V55.41H102.25c-32.51,0-58.86,26.36-58.86,58.86v288.63c-.04,5.44,1.16,10.83,3.53,15.73,12.75,25.77,63.07,108.51,207.12,172.12v-187.18c-18.86.07-37.69-1.47-56.29-4.61h0Z"/>
  <path class="st0" d="M405.67,55.01h-151.64v124.65c32.89-.17,59.68,26.35,59.85,59.24.09,18.29-8.22,35.61-22.55,46.97l19.67,112.85c-18.81,3.28-37.87,4.91-56.96,4.89v186.9c143.91-63.34,194.36-146.35,207.12-172.12,2.36-4.9,3.58-10.29,3.53-15.73V114.14c.13-32.51-26.1-58.99-58.61-59.14h-.41Z"/>
</svg>